<?xml version="1.0" encoding="UTF-8" standalone="no"?>
<!-- Created with Inkscape (http://www.inkscape.org/) -->

<svg
   xmlns:dc="http://purl.org/dc/elements/1.1/"
   xmlns:cc="http://creativecommons.org/ns#"
   xmlns:rdf="http://www.w3.org/1999/02/22-rdf-syntax-ns#"
   xmlns:svg="http://www.w3.org/2000/svg"
   xmlns="http://www.w3.org/2000/svg"
   xmlns:sodipodi="http://sodipodi.sourceforge.net/DTD/sodipodi-0.dtd"
   xmlns:inkscape="http://www.inkscape.org/namespaces/inkscape"
   width="140mm"
   height="60mm"
   viewBox="0 0 140 60"
   version="1.1"
   id="svg8"
   inkscape:version="0.92.4 (5da689c313, 2019-01-14)"
   sodipodi:docname="logo_svg_no_tag_3.svg">
  <defs
     id="defs2">
    <style
       id="style3713"
       type="text/css"><![CDATA[
    .fil2 {fill:#191919}
    .fil0 {fill:#191919;fill-rule:nonzero}
    .fil1 {fill:#666666;fill-rule:nonzero}
    .fil4 {fill:url(#id0)}
    .fil3 {fill:url(#id1)}
   ]]></style>
    <linearGradient
       y2="380.58701"
       x2="677.409"
       y1="380.58701"
       x1="531.58502"
       gradientUnits="userSpaceOnUse"
       id="id0"
       gradientTransform="matrix(0.13097874,0,0,0.11840194,420.86629,258.3396)">
      <stop
         id="stop3715"
         style="stop-color:#CC66FF"
         offset="0" />
      <stop
         id="stop3717"
         style="stop-color:#FFE378"
         offset="0.560784" />
      <stop
         id="stop3719"
         style="stop-color:#FF9482"
         offset="1" />
    </linearGradient>
    <linearGradient
       y2="283.30099"
       x2="380.44101"
       y1="305.319"
       x1="542.65601"
       gradientUnits="userSpaceOnUse"
       id="id1"
       gradientTransform="matrix(0.13097874,0,0,0.11840194,420.86629,258.3396)">
      <stop
         id="stop3722"
         style="stop-color:#7070F7"
         offset="0" />
      <stop
         id="stop3724"
         style="stop-color:#99FFFF"
         offset="0.45098" />
      <stop
         id="stop3726"
         style="stop-color:#59FC84"
         offset="1" />
    </linearGradient>
  </defs>
  <sodipodi:namedview
     id="base"
     pagecolor="#ffffff"
     bordercolor="#666666"
     borderopacity="1.0"
     inkscape:pageopacity="0.0"
     inkscape:pageshadow="2"
     inkscape:zoom="1.4"
     inkscape:cx="58.47588"
     inkscape:cy="28.662003"
     inkscape:document-units="mm"
     inkscape:current-layer="Слой_x0020_1"
     showgrid="false"
     inkscape:window-width="2400"
     inkscape:window-height="1271"
     inkscape:window-x="1991"
     inkscape:window-y="-9"
     inkscape:window-maximized="1"
     inkscape:pagecheckerboard="true" />
  <metadata
     id="metadata5">
    <rdf:RDF>
      <cc:Work
         rdf:about="">
        <dc:format>image/svg+xml</dc:format>
        <dc:type
           rdf:resource="http://purl.org/dc/dcmitype/StillImage" />
        <dc:title></dc:title>
      </cc:Work>
    </rdf:RDF>
  </metadata>
  <g
     inkscape:label="Layer 1"
     inkscape:groupmode="layer"
     id="layer1"
     transform="translate(0,-237)">
    <g
       style="clip-rule:evenodd;fill-rule:evenodd;image-rendering:optimizeQuality;shape-rendering:geometricPrecision;text-rendering:geometricPrecision"
       id="g3768"
       transform="matrix(0.26458333,0,0,0.26458333,-311.96831,293.62009)">
      <g
         id="Слой_x0020_1"
         transform="matrix(5.7982971,0,0,6.4732297,-1283.2856,-2030.6628)">
        <metadata
           id="CorelCorpID_0Corel-Layer" />
        <path
           id="path3736"
           d="m 474.99247,301.04458 0.26647,-0.0125 0.0875,-0.23626 -0.13594,0.005 -0.21804,0.24253 z m 1.88881,-1.81804 -0.28979,0.27551 9.93241,-1.72391 -0.70773,-0.10239 z m -3.86434,2.45162 -2.43677,-1.0734 -0.27462,0.11935 c 0.002,0.009 -0.003,0.0227 0.0433,0.0403 l 2.60049,1.1455 c 0.0348,0.006 0.0743,-0.017 0.0947,-0.0413 l 0.13063,-0.12485 -0.15769,-0.0656 z m 14.58121,-6.08715 -0.31883,0.066 1.3453,1.42988 c 0.0195,0.0228 0.0323,0.0269 0.0499,0.002 l 0.1554,-0.2037 -1.23183,-1.29393 z m -0.1164,1.35973 -7.51966,-1.07352 -0.11463,0.22517 c -0.007,0.0148 -4.9e-4,0.0211 0.015,0.0322 l 7.93313,1.13536 -0.31384,-0.31917 z m 5.71039,-3.23107 -1.25797,0.11786 -0.14734,0.26842 1.7058,-0.15969 -0.30048,-0.22659 z m -2.09738,0.20762 -4.33641,0.85282 -0.82217,-0.79724 -0.24602,0.10229 0.90505,1.00758 4.35121,-0.89427 0.14835,-0.27122 z m -3.20844,-1.7451 -2.48601,0.98165 c -0.10524,0.0415 -0.18969,0.0246 -0.21733,-0.004 l -1.28254,-1.28379 -0.11189,0.23885 c -0.003,0.0267 2.5e-4,0.0509 0.0151,0.0712 l 1.23157,1.22439 c 0.11477,0.13977 0.14686,0.10062 0.17833,0.0915 l 2.59379,-1.0319 0.079,-0.28887 z m -8.59623,3.20451 -5.58888,-8.17652 -0.41808,-0.20297 5.88629,8.60986 z m 9.92581,-5.43427 0.002,0.005 c 0.0672,-0.23842 0.11534,-0.37247 0.0811,-0.61708 l -1.84381,-5.36231 c -0.0747,-0.22326 -0.44917,-0.24881 -0.59656,-0.0838 -0.0487,0.0545 -0.10609,0.17337 -0.11289,0.24667 0.19974,-0.17433 0.5292,-0.0545 0.60618,0.19147 l 1.83684,5.41019 0.0283,0.20236 -0.002,0.006 z m -6.03445,1.6186 0.13614,-0.2902 c -0.33703,-0.34242 -0.70065,-0.86646 -1.158,-1.07235 l -9.66576,-4.76284 c -0.32037,-0.0823 -0.56044,0.0925 -0.49808,0.38378 0.1223,-0.0802 0.25593,-0.11982 0.43322,-0.0742 l 9.61911,4.7401 c 0.095,0.0428 0.15112,0.0796 0.22891,0.14518 l 0.90446,0.9305 z m 5.41806,0.62017 3.51414,0.0279 c 0.18868,0.006 0.30278,0.0139 0.43648,0.13859 l 2.29588,1.8164 c 0.0143,0.0139 0.0274,0.0279 0.0391,0.0423 0.17268,-0.0157 0.29421,-0.0969 0.17675,-0.25144 -0.74179,-0.5953 -1.47452,-1.2576 -2.24779,-1.82553 -0.20736,-0.15239 -0.27533,-0.17044 -0.54012,-0.19911 l -3.59706,-0.0288 z m -10.0253,3.94362 -9.29779,4.04893 c -0.15166,0.0918 -0.19999,0.19183 -0.18049,0.3439 0.0335,-0.0421 0.0778,-0.0786 0.13048,-0.10492 l 9.46261,-4.12043 z"
           class="fil2"
           inkscape:connector-curvature="0"
           style="fill:#191919;stroke-width:0.12453168" />
        <path
           id="path3738"
           d="m 475.25901,301.03215 -0.26652,0.0125 0.44547,-0.49549 z m 1.3326,-1.53014 2.81024,-2.67248 c 0.0536,-0.0419 0.0735,-0.0427 0.14457,-0.0507 l 6.97762,0.99934 -9.93242,1.72388 z m -3.54753,2.36668 c -0.0286,0.0343 -0.0697,0.048 -0.0947,0.0413 l -2.62037,-1.15425 c -0.0171,-0.012 -0.0207,-0.0125 -0.0234,-0.0316 l 7.22075,-3.1379 -4.48231,4.28249 z m 15.63061,-4.78003 c -0.0226,0.029 -0.0318,0.0173 -0.0582,-0.011 l -1.33697,-1.4212 2.92467,-0.5733 -1.52941,2.00498 z m -8.81921,-1.00467 2.33214,-4.51953 5.60808,5.70546 -7.93313,-1.13536 c -0.0275,-0.0192 -0.0186,-0.0211 -0.007,-0.0505 z m 12.49282,-3.00078 1.1444,0.86303 -1.70575,0.15974 z m -0.67454,-0.21426 -0.72723,1.32953 -4.28558,0.83497 -0.97067,-0.94829 3.07418,-1.27795 2.9256,0.0429 -0.0163,0.019 z m -3.1887,-2.87407 -0.56566,2.06699 -0.11195,0.4092 -2.59373,1.03191 c -0.0652,0.0204 -0.0876,0.004 -0.14006,-0.0525 l -1.26995,-1.26331 c -0.0153,-0.0273 -0.0173,-0.0355 -0.0148,-0.0719 l 3.20851,-6.64644 1.48272,4.35532 0.0165,0.11805 -0.0116,0.0528 z m -15.20219,-2.98805 8.28627,4.02746 -2.39959,4.58274 z m 13.36653,-2.73371 -3.47238,7.29411 -0.89992,-0.92664 c -0.0778,-0.0656 -0.13378,-0.1024 -0.22882,-0.14524 l -9.61235,-4.73461 c -0.38038,-0.11064 -0.69973,0.19381 -0.55545,0.53655 l 6.80866,10.00493 -9.47201,4.1199 c -0.20907,0.10448 -0.26608,0.42881 -0.059,0.58499 l 3.64272,1.61072 c 0.21148,0.0879 0.31189,0.12072 0.49223,-0.005 l 0.90729,-0.85 c 0.0417,-0.0458 0.0609,-0.0584 0.12354,-0.0655 l 1.36809,0.0202 c 0.0981,-0.0137 0.14123,-0.0604 0.17015,-0.13934 l 0.45961,-1.26482 c 0.0158,-0.0407 0.024,-0.0403 0.0676,-0.0591 l 12.37234,-2.1374 c 0.0814,-0.0204 0.12339,-0.0488 0.17484,-0.10559 l 2.39322,-3.15047 3.40009,-0.33255 c 0.2236,-0.0302 0.22848,-0.24625 0.11631,-0.35447 l -2.29594,-1.81635 c -0.13365,-0.1248 -0.24776,-0.13194 -0.43648,-0.13861 l -3.51409,-0.0278 0.60637,-2.193 0.0116,-0.0528 -0.0283,-0.20238 -1.8369,-5.41016 c -0.0916,-0.29268 -0.54024,-0.40673 -0.70305,-0.0597 z"
           class="fil3"
           inkscape:connector-curvature="0"
           style="fill:url(#id1);stroke-width:0.12453168" />
        <path
           id="path3740"
           d="m 502.05307,307.58487 -6.5525,0.8057 -0.39125,0.35122 7.64141,-0.9396 -0.69768,-0.21732 z m -8.11551,0.80371 -1.31846,1.15259 -0.50339,-0.16939 -0.26671,0.14372 0.89661,0.3132 c 0.009,0.002 0.0185,0.002 0.0251,-0.005 l 2.31826,-2.05937 c -0.38421,0.20828 -0.76642,0.41577 -1.15139,0.62324 z m 11.28386,-2.09318 -0.9254,0.83412 c 0.0273,0.0397 0.15166,0.28305 0.20722,0.23049 l 1.18186,-1.0869 -0.46368,0.0224 z m -1.91249,0.69407 -4.81476,-1.49148 c -0.0354,0.0476 -0.19715,0.18958 -0.0837,0.22245 l 5.11465,1.58434 -0.21617,-0.31533 z m 4.52562,-1.65991 -0.25086,-0.019 -0.20732,0.26244 0.73357,0.0552 z m -1.50165,-0.081 -3.24949,0.11293 0.19717,0.28518 3.17883,-0.11055 0.55019,-0.68165 -0.31208,-0.0577 z m -6.58794,-3.13341 c -0.6755,0.91023 -1.40273,1.8145 -2.03689,2.7475 0.0152,0.0339 0.10203,0.31112 0.15218,0.24973 l 2.07847,-2.8003 c 0.0108,-0.0357 -0.003,-0.0615 -0.0247,-0.0768 -0.0524,-0.0372 -0.10542,-0.0751 -0.16909,-0.12025 z m 2.85953,1.89602 -0.356,0.11887 0.15587,0.227 0.26493,-0.0922 -0.97813,-3.83199 0.91333,3.57826 z m -1.8427,-2.03507 c -0.0726,-0.21654 -0.17451,-0.44058 -0.35514,-0.60279 l -1.09315,-0.78042 0.0343,0.3375 m -1.2003,-4.49992 -2.6e-4,0.14658 c 0.10562,-0.30966 0.40566,-0.34542 0.65035,-0.19711 l 3.52522,3.57404 0.0611,0.11051 c -0.0345,-0.18056 -0.0717,-0.48285 -0.21067,-0.62367 l -3.3042,-3.34963 c -0.31682,-0.19069 -0.72159,0.002 -0.72159,0.33928 z m 0.34263,3.58461 -4.06826,-2.90583 c -0.3914,-0.26538 -0.96952,0.011 -0.78079,0.43596 l 0.0625,0.14073 c 0.045,-0.32506 0.36487,-0.46935 0.69255,-0.25591 l 4.12623,2.93661 -0.0371,-0.3978 0.005,0.0463 z m -0.33999,-3.29514 -0.004,-0.0453 m -0.98292,8.80531 -6.6016,3.5821 c -0.15573,0.12521 -0.16473,0.38564 0.0247,0.51408 0.002,-0.0806 0.0236,-0.13827 0.077,-0.19586 0.0208,-0.0225 0.036,-0.0302 0.0599,-0.0485 l 6.52643,-3.53785 c 0.0763,-0.0522 -0.0591,-0.25267 -0.0864,-0.31406 z m 12.20453,0.46401 c 0.11799,-0.0945 0.16244,-0.22879 0.0187,-0.40638 l -1.13323,-1.26007 c -0.20483,-0.22711 -0.49635,-0.29149 -0.79889,-0.33701 l -2.34335,-0.40534 c -0.14145,-0.0182 -0.22629,-0.006 -0.36678,0.0185 l -1.39511,0.30632 0.0748,0.29445 1.4468,-0.31321 c 0.12517,-0.0283 0.2373,-0.0352 0.36678,-0.0184 l 2.34335,0.40528 c 0.18355,0.0335 0.33468,0.061 0.44567,0.20426 l 1.34131,1.51171 z"
           class="fil2"
           inkscape:connector-curvature="0"
           style="fill:#191919;stroke-width:0.12453168" />
        <path
           id="path3742"
           d="m 495.10923,308.74177 2.71017,-2.43184 c 0.0268,-0.0242 0.065,-0.0235 0.0984,-0.0133 l 4.83281,1.50542 -7.64142,0.9396 z m -2.33895,1.08319 c -0.006,0.005 -0.0153,0.005 -0.0247,0.004 l -0.89662,-0.31315 c 1.08065,-0.58231 2.1612,-1.16533 3.23997,-1.7502 l -2.31859,2.05962 z m 10.75473,-2.52018 z m 0.97813,0.0552 c -0.03,0.0284 -0.0383,0.0111 -0.0612,-0.0185 l -0.67244,-0.9764 1.91547,-0.0922 c -0.3972,0.35905 -0.78816,0.7247 -1.18186,1.08695 z m -6.13356,-1.6949 2.09882,-2.81873 3.0566,4.45839 c -1.70489,-0.52811 -3.40976,-1.05625 -5.11466,-1.58435 -0.0299,-0.005 -0.0482,-0.0202 -0.0408,-0.0552 z m 9.00675,-0.092 0.30561,-0.38695 c 0.006,-0.005 0.0124,-0.005 0.0204,0 l 0.40749,0.4422 z m -0.91702,-0.0368 -3.17884,0.11055 -0.40748,-0.58954 -0.0346,-0.0599 2.15376,-0.47437 c 0.0428,-0.01 0.0783,-0.0185 0.12225,-0.0185 l 1.8951,0.35005 -0.55019,0.68165 z m -11.49268,-6.81647 4.94766,3.51598 c 0.0273,0.0246 0.0319,0.0427 0.0244,0.0764 -0.69284,0.9334 -1.38568,1.86681 -2.07846,2.80029 -0.0137,0.0171 -0.0273,0.0149 -0.0408,0 l -2.85278,-6.39275 z m 0,0 z m 4.05503,-1.06854 2.56754,2.59763 0.0815,0.0922 0.0204,0.0922 0.97808,3.83201 -0.26488,0.092 -1.56904,-2.28443 c -0.0378,-0.0512 -0.0738,-0.10351 -0.12229,-0.14737 l -1.36522,-0.99484 -0.3057,-2.9661 z m -0.87625,-1.06851 v 0.0921 l 0.36683,3.5556 0.0101,0.13637 -4.12623,-2.93661 c -0.2966,-0.20113 -0.64384,-0.0968 -0.69284,0.25794 1.18866,2.67741 2.37731,5.3549 3.56597,8.03239 0.0147,0.0305 0.005,0.0544 -0.0204,0.0737 l -6.50105,3.52286 c -0.25516,0.13821 -0.17823,0.4502 0.0212,0.58538 l 1.81356,0.60795 c 0.27624,0.0833 0.41353,0.0558 0.63173,-0.092 l 0.63161,0.12898 c 0.20583,0 0.30623,-0.019 0.44836,-0.14739 l 0.55018,-0.92114 9.49571,-1.17905 c 0.12666,-0.0163 0.22954,-0.0234 0.32602,-0.11061 l 2.11922,-1.95281 1.9328,0.11018 c 0.26647,0 0.87433,0.0459 0.67894,-0.36768 l -1.36871,-1.54794 c -0.11693,-0.14094 -0.26092,-0.16918 -0.4483,-0.20265 l -2.34336,-0.40529 c -0.12794,-0.0166 -0.2429,-0.01 -0.36682,0.0185 l -1.44675,0.3132 -1.03927,-4.08992 -0.0611,-0.11053 -3.52522,-3.57404 c -0.28213,-0.16986 -0.56522,-0.0721 -0.65212,0.20265 z"
           class="fil4"
           inkscape:connector-curvature="0"
           style="fill:url(#id0);stroke-width:0.12453168" />
      </g>
    </g>
  </g>
</svg>
